<?xml version="1.0" standalone="no"?>
<!DOCTYPE svg PUBLIC "-//W3C//DTD SVG 20010904//EN"
 "http://www.w3.org/TR/2001/REC-SVG-20010904/DTD/svg10.dtd">
<svg version="1.0" xmlns="http://www.w3.org/2000/svg"
 width="970.000000pt" height="970.000000pt" viewBox="0 0 970.000000 970.000000"
 preserveAspectRatio="xMidYMid meet">
<metadata>
Created by potrace 1.14, written by Peter Selinger 2001-2017
</metadata>
<g transform="translate(0.000000,970.000000) scale(0.100000,-0.100000)"
fill="#000000" stroke="none">
<path d="M3455 8037 c-413 -238 -768 -560 -977 -887 -143 -224 -242 -455 -298
-691 -51 -219 -50 -148 -50 -2523 0 -1477 4 -2223 10 -2248 16 -56 60 -88 122
-88 45 0 63 7 152 62 282 171 605 453 803 699 205 254 375 594 444 889 56 238
53 96 57 2515 3 2086 2 2232 -14 2262 -21 40 -51 61 -101 68 -34 5 -51 -2
-148 -58z"/>
<path d="M5565 8089 c-20 -6 -279 -258 -802 -781 -610 -610 -775 -780 -783
-808 -13 -48 -13 -1763 0 -1811 19 -66 87 -106 152 -88 47 13 3324 3289 3337
3336 19 66 -21 133 -90 153 -43 13 -1772 12 -1814 -1z"/>
<path d="M5160 5223 c-26 -5 -1004 -970 -1061 -1047 -39 -52 -39 -100 0 -152
16 -21 312 -321 657 -666 613 -611 630 -627 674 -633 25 -3 497 -5 1050 -3
987 3 1005 3 1032 23 64 49 76 118 29 181 -46 62 -2285 2294 -2301 2294 -8 0
-24 2 -35 4 -11 2 -31 2 -45 -1z"/>
</g>
</svg>
